# https://github.com/mikedh/trimesh

o geometry_0
v 0.01194539 0.01268551 -0.02323354
v 0.00810795 0.00466318 -0.02322756
v 0.00810795 0.00466318 -0.14345791
v 0.00194655 0.00693736 -0.02322785
v 0.00234158 0.00689029 -0.14345221
v 0.00209643 0.01368046 -0.14345791
v 0.00192690 0.01500540 -0.02243174
v 0.01187017 0.01321724 -0.14345980
v 0.01395220 0.01907113 -0.13447318
v 0.01111370 0.01969197 -0.03525060
v 0.00209643 0.01969197 -0.03525060
v 0.00209643 0.01969197 -0.13444063
f 1 2 3
f 4 3 2
f 5 4 6
f 5 6 3
f 5 3 4
f 7 6 4
f 7 4 2
f 7 2 1
f 8 9 1
f 8 1 3
f 8 3 6
f 10 1 9
f 10 7 1
f 10 11 7
f 12 10 9
f 12 11 10
f 12 7 11
f 12 6 7
f 12 8 6
f 12 9 8

o geometry_1
v 0.02013098 0.01969197 0.15711796
v 0.02013098 0.01668622 0.15711796
v 0.02013098 0.01969197 0.05792792
v 0.01704031 0.01969724 0.05492346
v 0.01712522 0.01067470 0.15711796
v 0.01261222 0.01217162 0.15507151
v 0.01403760 0.01931103 0.15413762
v 0.02013098 0.01668622 0.05792792
v 0.01364914 0.01386615 0.05492552
v 0.01268900 0.01238598 0.13007641
v 0.01487238 0.01560702 0.05494779
v 0.01712522 0.01067470 0.13006613
v 0.01633685 0.01840574 0.05488856
f 13 14 15
f 13 15 16
f 17 14 13
f 17 13 18
f 19 18 13
f 19 13 16
f 20 15 14
f 20 14 17
f 20 16 15
f 21 19 16
f 22 18 19
f 22 19 21
f 23 20 21
f 24 21 20
f 24 20 17
f 24 22 21
f 24 17 18
f 24 18 22
f 25 23 21
f 25 21 16
f 25 16 20
f 25 20 23

o geometry_2
v 0.00658149 0.00528559 0.00113799
v 0.00810795 0.00165742 0.00081851
v -0.00629124 0.00507870 0.00106414
v -0.00692085 -0.00134834 0.04289913
v 0.00510219 -0.00134834 0.04289913
v 0.00442608 0.00755409 0.03688420
v 0.00309731 -0.02347775 0.04399776
v 0.00810795 0.00165742 0.03688761
v 0.00810795 -0.02238865 0.04289913
v 0.00810795 -0.00435409 0.04289913
v 0.00510219 -0.02539441 0.03989337
v -0.00692085 -0.02539441 0.04289913
v -0.00992660 -0.01637713 0.04289913
v -0.00391509 -0.02539441 0.03688761
v 0.00810795 -0.00435409 0.00683002
v 0.00510219 -0.01036561 0.01284154
v -0.00729974 0.00544373 0.00424389
v -0.00992660 -0.00735985 0.04289913
v -0.00992660 -0.00134834 0.00683002
v 0.00810795 0.00466318 0.03087609
v 0.00209643 -0.02539441 0.03688761
v -0.00391509 -0.00735985 0.00683002
v -0.00692085 -0.01337137 0.01885306
v -0.00992660 -0.01637713 0.03688761
v 0.00810795 -0.02238865 0.03989337
v 0.00510219 -0.00435409 0.00382426
v -0.00692085 -0.00134834 0.00081851
v -0.00992660 0.00466318 0.02787033
v -0.00992660 0.00165742 0.00382426
v 0.00209643 -0.00735985 0.00683002
v -0.00692085 -0.02539441 0.03989337
v 0.00510219 -0.00134834 0.00081851
v -0.00351058 0.00711607 0.03689766
v -0.00992660 -0.00134834 0.03688761
v -0.00692085 0.00165742 0.03989337
f 26 27 28
f 29 30 31
f 29 32 30
f 33 34 27
f 35 32 34
f 35 30 32
f 35 34 33
f 35 33 31
f 35 31 30
f 36 34 32
f 37 32 38
f 37 36 32
f 37 39 36
f 40 27 34
f 40 36 41
f 42 26 28
f 42 31 26
f 43 38 32
f 43 32 29
f 43 44 38
f 45 26 31
f 45 31 33
f 45 33 27
f 45 27 26
f 46 36 39
f 46 41 36
f 46 39 47
f 48 47 39
f 49 37 38
f 49 38 44
f 50 40 34
f 50 34 36
f 50 36 40
f 51 40 41
f 51 27 40
f 52 51 47
f 52 28 27
f 52 48 44
f 52 47 48
f 53 44 43
f 54 42 28
f 54 53 42
f 54 44 53
f 54 52 44
f 54 28 52
f 55 46 47
f 55 41 46
f 55 51 41
f 55 47 51
f 56 48 39
f 56 39 37
f 56 37 49
f 56 49 44
f 56 44 48
f 57 52 27
f 57 27 51
f 57 51 52
f 58 29 31
f 58 31 42
f 58 42 53
f 59 53 43
f 60 58 53
f 60 29 58
f 60 53 59
f 60 59 43
f 60 43 29

o geometry_3
v 0.01111370 0.04373804 -0.03525060
v 0.01111370 0.02870925 -0.03525060
v 0.01331367 0.02923929 -0.14350439
v 0.00154197 0.04470468 -0.03523873
v 0.00209643 0.02870925 -0.14345791
v 0.00207836 0.04370454 -0.14345752
v 0.00120766 0.04418342 -0.14043414
v 0.00510219 0.04674380 -0.14045215
v 0.00209643 0.02870925 -0.03525060
v 0.01111370 0.04373804 -0.07432546
v 0.01111370 0.04073228 -0.14345791
v 0.00510219 0.04674380 -0.03525060
v 0.00810795 0.04373804 -0.14345791
f 61 62 63
f 64 62 61
f 65 63 62
f 65 66 63
f 67 66 65
f 67 68 66
f 67 64 68
f 69 65 62
f 69 62 64
f 69 67 65
f 69 64 67
f 70 61 63
f 70 63 71
f 70 68 61
f 72 68 64
f 72 64 61
f 72 61 68
f 73 66 68
f 73 71 63
f 73 63 66
f 73 70 71
f 73 68 70

o geometry_4
v 0.00209643 0.02870925 -0.13444063
v 0.00209643 0.01969197 -0.13444063
v 0.00209643 0.01969197 -0.14345791
v -0.01593812 0.01969197 -0.13444063
v 0.00209643 0.02870925 -0.14345791
v -0.01447150 0.02893404 -0.13441261
v -0.01593812 0.02870925 -0.15848670
v -0.00704383 0.02881602 -0.15458766
v -0.01593812 0.02269773 -0.15548094
v -0.01593812 0.01969197 -0.14646367
v -0.01187825 0.02041350 -0.15415732
v -0.00721640 0.02000475 -0.15344716
v -0.01293236 0.02570349 -0.15848670
v -0.01293236 0.02870925 -0.15848670
v -0.01593812 0.02570349 -0.15848670
f 74 75 76
f 77 76 75
f 78 74 76
f 79 77 75
f 79 75 74
f 79 80 77
f 79 74 78
f 81 78 76
f 81 79 78
f 81 80 79
f 82 77 80
f 83 76 77
f 83 82 84
f 83 77 82
f 85 83 84
f 85 76 83
f 85 84 86
f 85 86 81
f 85 81 76
f 87 86 80
f 87 80 81
f 87 81 86
f 88 82 80
f 88 80 86
f 88 86 84
f 88 84 82

o geometry_5
v -0.00692085 0.04674380 0.15411220
v -0.00674260 0.04046710 0.15167810
v -0.00644794 0.04454247 0.00081960
v -0.00992660 0.04674380 0.00081851
v -0.01593812 0.04073228 0.15411220
v -0.01593812 0.04373804 0.15411220
v -0.00992660 0.04674380 0.15411220
v -0.00692085 0.04073228 0.00081851
v -0.01274056 0.04047429 0.00081994
v -0.01378091 0.03984586 0.06996503
v -0.01593812 0.04373804 0.06995095
f 89 90 91
f 89 91 92
f 93 90 89
f 94 93 89
f 95 94 89
f 95 89 92
f 95 92 94
f 96 91 90
f 96 97 92
f 96 92 91
f 98 90 93
f 98 96 90
f 98 97 96
f 99 94 92
f 99 92 97
f 99 93 94
f 99 98 93
f 99 97 98

o geometry_6
v -0.00992660 0.03472077 0.00081851
v -0.00839311 0.01370038 0.00078195
v -0.00992660 0.03472077 -0.03525060
v -0.01894388 0.03472077 -0.03525060
v -0.00992660 0.01969197 -0.03525060
v -0.01329979 0.01505006 0.00089073
v -0.01654908 0.03344529 0.00085589
v -0.01894388 0.01969197 0.00081851
v -0.01894388 0.02269773 -0.03525060
v -0.01593812 0.01368046 -0.01421029
v -0.01706420 0.02562990 0.00086071
v -0.01111644 0.01272706 -0.01424274
v -0.01475198 0.02020750 -0.03522104
v -0.01894388 0.01969197 -0.02022180
f 100 101 102
f 100 102 103
f 104 102 101
f 104 103 102
f 105 101 100
f 106 100 103
f 106 103 107
f 106 105 100
f 108 107 103
f 108 103 104
f 109 101 105
f 109 105 107
f 110 106 107
f 110 107 105
f 110 105 106
f 111 104 101
f 111 101 109
f 112 109 108
f 112 108 104
f 112 111 109
f 112 104 111
f 113 109 107
f 113 107 108
f 113 108 109

o geometry_7
v 0.01712522 0.03472077 -0.03525060
v 0.01580574 0.02839135 -0.03522272
v 0.01712522 0.03171501 -0.11340032
v 0.01411946 0.03772653 -0.14646367
v 0.01411946 0.03472077 -0.15848670
v 0.01150153 0.03805476 -0.03525979
v 0.01249356 0.03670683 -0.03521249
v 0.01424583 0.02801552 -0.11333949
v 0.01322698 0.02860813 -0.15480477
v 0.01116899 0.02885715 -0.15470554
v 0.01111370 0.02870925 -0.03525060
v 0.01712522 0.03472077 -0.07432546
v 0.00975301 0.03691036 -0.14643142
v 0.01111370 0.03171501 -0.15848670
v 0.01411946 0.03171501 -0.15848670
v 0.01075781 0.03486606 -0.15577260
f 114 115 116
f 117 116 118
f 117 119 114
f 120 115 114
f 120 114 119
f 121 116 115
f 122 121 123
f 122 116 121
f 124 120 119
f 124 115 120
f 124 121 115
f 124 123 121
f 125 117 114
f 125 114 116
f 125 116 117
f 126 119 117
f 126 124 119
f 126 123 124
f 127 122 123
f 127 123 126
f 128 118 116
f 128 116 122
f 128 127 118
f 128 122 127
f 129 126 117
f 129 117 118
f 129 127 126
f 129 118 127

o geometry_8
v 0.00209643 0.04674380 -0.15848670
v 0.01111370 0.04073228 -0.15848670
v -0.01593812 0.04073228 -0.15848670
v 0.01111370 0.04073228 -0.14345791
v 0.01331367 0.02923929 -0.14350439
v 0.00810795 0.04373804 -0.14345791
v -0.01430323 0.02895983 -0.14342667
v -0.00992660 0.02870925 -0.15848670
v 0.00810795 0.04373804 -0.15848670
v 0.00115912 0.04417913 -0.14343911
v -0.01593812 0.04073228 -0.14345791
v -0.01593812 0.02870925 -0.15848670
v -0.00391129 0.04502688 -0.14345553
v 0.01111370 0.03171501 -0.15848670
v 0.01116899 0.02885715 -0.15470554
v -0.00392981 0.04500814 -0.15696789
f 130 131 132
f 133 134 131
f 133 131 135
f 133 136 134
f 137 132 131
f 138 130 135
f 138 135 131
f 138 131 130
f 139 133 135
f 139 136 133
f 139 140 136
f 141 140 132
f 141 136 140
f 141 137 136
f 141 132 137
f 142 132 140
f 142 140 139
f 142 139 135
f 142 135 130
f 143 137 131
f 143 131 134
f 144 134 136
f 144 136 137
f 144 143 134
f 144 137 143
f 145 142 130
f 145 130 132
f 145 132 142

o geometry_9
v 0.01653824 0.02576952 -0.01419805
v 0.01491563 0.01716950 -0.01418495
v 0.01468540 0.01721985 -0.03522262
v -0.00864503 0.02593596 -0.01400341
v 0.01610519 0.02581823 -0.03522933
v -0.00692085 0.02570349 -0.03525060
v 0.01190984 0.01272803 -0.03525632
v -0.00748289 0.01642814 -0.01435826
v -0.00692085 0.01368046 -0.03525060
v -0.00692085 0.01368046 -0.02322756
v 0.01194539 0.01268551 -0.02323354
f 146 147 148
f 149 147 146
f 150 146 148
f 150 149 146
f 150 151 149
f 152 150 148
f 152 151 150
f 152 148 147
f 153 147 149
f 154 149 151
f 154 151 152
f 154 153 149
f 154 155 153
f 156 152 147
f 156 154 152
f 156 155 154
f 156 153 155
f 156 147 153

o geometry_10
v 0.00810795 -0.02238865 0.04289913
v 0.00810795 -0.01938289 0.06393944
v 0.00810795 -0.03441168 0.07596247
v -0.00391509 -0.02840017 0.04289913
v 0.00510219 -0.02840017 0.04289913
v -0.00692085 -0.03140592 0.08798551
v -0.00692085 -0.01938289 0.06995095
v -0.00692085 -0.04342896 0.06995095
v -0.00692085 -0.02539441 0.04289913
v -0.00619844 -0.01912164 0.04304398
v 0.00810795 -0.02840017 0.07596247
v 0.00510219 -0.03140592 0.08798551
v 0.00563733 -0.01868342 0.04322387
v 0.00510219 -0.01938289 0.07295671
v -0.00391509 -0.04342896 0.06694520
v 0.00510219 -0.04342896 0.06995095
v 0.00510219 -0.03741744 0.08798551
v 0.00209643 -0.03140592 0.09099127
v 0.00810795 -0.03441168 0.06393944
v -0.00391509 -0.01938289 0.07295671
v 0.00510219 -0.02840017 0.08497975
v -0.00692085 -0.03140592 0.04891065
v 0.00810795 -0.02238865 0.06995095
v 0.00209643 -0.03441168 0.05191640
v 0.00510219 -0.04342896 0.07596247
v -0.00692085 -0.04042320 0.08497975
v 0.00810795 -0.02539441 0.04590489
v -0.00391509 -0.03140592 0.09099127
v -0.00391509 -0.03441168 0.05191640
v 0.00209643 -0.04342896 0.06694520
v -0.00090933 -0.04342896 0.07896823
v 0.00510219 -0.04042320 0.06393944
v -0.00391509 -0.03741744 0.09099127
v -0.00692085 -0.04342896 0.07896823
v -0.00692085 -0.03741744 0.08798551
v 0.00209643 -0.03441168 0.09099127
v -0.00090933 -0.03741744 0.09099127
f 157 158 159
f 160 157 161
f 162 163 164
f 165 163 166
f 165 164 163
f 165 166 157
f 165 157 160
f 167 168 159
f 167 159 158
f 169 157 166
f 169 158 157
f 169 170 158
f 169 166 163
f 171 172 164
f 173 159 168
f 173 168 174
f 175 157 159
f 175 159 172
f 176 174 170
f 176 163 162
f 176 169 163
f 176 170 169
f 177 170 174
f 177 174 168
f 178 165 160
f 178 164 165
f 178 171 164
f 179 167 158
f 179 158 170
f 179 170 177
f 179 177 168
f 179 168 167
f 180 160 161
f 181 172 159
f 181 159 173
f 181 164 172
f 182 162 164
f 183 161 157
f 183 157 175
f 184 176 162
f 184 174 176
f 185 178 160
f 185 171 178
f 185 180 171
f 185 160 180
f 186 180 161
f 186 172 171
f 186 171 180
f 187 181 173
f 187 164 181
f 188 161 183
f 188 186 161
f 188 172 186
f 188 183 175
f 188 175 172
f 189 184 162
f 189 174 184
f 190 182 164
f 190 164 187
f 190 189 182
f 190 187 189
f 191 189 162
f 191 162 182
f 191 182 189
f 192 173 174
f 192 174 189
f 193 189 187
f 193 187 173
f 193 192 189
f 193 173 192

o geometry_11
v 0.01322698 0.02860813 -0.15480477
v 0.01411946 0.01668622 -0.15548094
v -0.00704383 0.02881602 -0.15458766
v 0.01712522 0.02269773 -0.15247519
v 0.01712522 0.02570349 -0.14345791
v 0.01712522 0.01969197 -0.14345791
v 0.01347977 0.02855513 -0.14344439
v -0.00692085 0.02870925 -0.14345791
v 0.01411946 0.01067470 -0.15247519
v 0.01712522 0.02570349 -0.15247519
v 0.00810795 0.00466318 -0.14345791
v -0.00391509 0.00466318 -0.14345791
v -0.00721640 0.02000475 -0.15344716
v 0.01712522 0.01969197 -0.14946943
v 0.01411946 0.01067470 -0.14345791
v 0.00810795 0.00466318 -0.15247519
v -0.00692085 0.01969197 -0.14345791
v -0.00090933 0.00466318 -0.15247519
v -0.00391509 0.00466318 -0.14646367
f 194 195 196
f 197 198 199
f 200 199 198
f 200 194 196
f 200 196 201
f 202 195 197
f 203 198 197
f 203 200 198
f 203 194 200
f 203 197 195
f 203 195 194
f 204 200 205
f 206 201 196
f 207 202 197
f 207 197 199
f 207 199 202
f 208 204 202
f 208 202 199
f 208 199 200
f 208 200 204
f 209 204 205
f 209 202 204
f 209 195 202
f 210 206 205
f 210 201 206
f 210 205 200
f 210 200 201
f 211 206 196
f 211 196 195
f 211 195 209
f 211 209 205
f 212 211 205
f 212 205 206
f 212 206 211

o geometry_12
v -0.00353380 0.00837707 -0.10437363
v -0.01282510 0.01973859 -0.10438037
v -0.00391509 0.01969197 -0.10438305
v -0.01336694 0.02080946 -0.10131323
v -0.00391509 0.01969197 -0.03525060
v -0.00841544 0.01924787 -0.01444904
v -0.00636430 0.00870257 -0.01419655
v -0.01519268 0.02001596 -0.01419171
v -0.00992660 0.00766894 -0.09536577
v -0.01593812 0.01368046 -0.01421029
v -0.00387493 0.00776452 -0.03524959
v -0.00811659 0.00983994 -0.01416262
v -0.01593812 0.01668622 -0.10137729
v -0.01593812 0.01368046 -0.04727363
v -0.01039319 0.01499859 -0.10431354
v -0.00553564 0.00970586 -0.10434634
v -0.01293236 0.01067470 -0.08634849
f 213 214 215
f 216 215 214
f 217 218 219
f 217 215 216
f 217 213 215
f 220 219 218
f 220 217 216
f 220 218 217
f 221 219 222
f 223 217 219
f 223 213 217
f 223 221 213
f 223 219 221
f 224 220 222
f 224 222 219
f 224 219 220
f 225 220 216
f 225 222 220
f 225 216 214
f 226 222 225
f 227 225 214
f 228 213 221
f 228 221 225
f 228 225 227
f 228 227 214
f 228 214 213
f 229 226 225
f 229 225 221
f 229 221 222
f 229 222 226

o geometry_13
v -0.01264465 0.04034530 -0.03524845
v -0.00692085 0.04073228 -0.03525060
v -0.00644427 0.04452536 -0.03524950
v -0.00992660 0.04674380 -0.15848670
v -0.00394344 0.04115174 -0.15624611
v -0.01293236 0.04373804 -0.15848670
v -0.00391509 0.04073228 -0.07733122
v -0.01207417 0.04019912 -0.15672434
v -0.00392981 0.04500814 -0.15696789
v -0.00992660 0.04674380 -0.03525060
v -0.00390661 0.04511702 -0.07732908
f 230 231 232
f 233 234 235
f 236 232 231
f 236 231 230
f 237 230 235
f 237 235 234
f 237 236 230
f 237 234 236
f 238 234 233
f 238 236 234
f 239 230 232
f 239 233 235
f 239 235 230
f 240 232 236
f 240 236 238
f 240 239 232
f 240 238 233
f 240 233 239

o geometry_14
v -0.00692085 0.01668622 0.15711796
v -0.00692085 0.00466318 0.15711796
v -0.00607575 0.00742312 0.10303353
v -0.01293236 0.00766894 0.15711796
v -0.02194964 0.01969197 0.15411220
v -0.02194964 0.01668622 0.15411220
v -0.01894388 0.01368046 0.10301430
v -0.01824171 0.01989826 0.10303297
v -0.00692085 0.01969197 0.10301430
v -0.00686742 0.01964214 0.15366225
v -0.01293236 0.01368046 0.15711796
v -0.00992660 0.00466318 0.10301430
v -0.02194964 0.01668622 0.13006613
v -0.01894388 0.01067470 0.13307189
v -0.01914393 0.02051625 0.13014072
v -0.00992660 0.01668622 0.15711796
v -0.01894388 0.01067470 0.15411220
v -0.01593812 0.00766894 0.13006613
v -0.01593812 0.00766894 0.15411220
v -0.00992660 0.00466318 0.15711796
f 241 242 243
f 244 242 241
f 245 246 244
f 247 248 249
f 250 241 243
f 250 243 249
f 250 245 241
f 251 245 244
f 251 244 241
f 252 247 249
f 252 249 243
f 252 243 242
f 253 245 248
f 253 248 247
f 253 246 245
f 253 254 246
f 253 247 254
f 255 250 249
f 255 249 248
f 255 248 245
f 255 245 250
f 256 251 241
f 256 241 245
f 256 245 251
f 257 244 246
f 257 246 254
f 258 254 247
f 258 247 252
f 258 257 254
f 259 244 257
f 259 257 258
f 259 258 252
f 260 242 244
f 260 244 259
f 260 259 252
f 260 252 242

o geometry_15
v 0.00209643 0.01969197 0.08197399
v 0.00193076 0.00694972 0.08197351
v 0.00194635 0.00694041 0.00081822
v -0.00692085 0.01969197 0.08197399
v -0.00572539 0.02119396 0.00186073
v 0.00209643 0.01969197 0.00081851
v -0.00493622 0.00370361 0.00024198
v -0.00791341 0.00465438 0.01587371
v -0.00692085 0.00466318 0.08197399
v -0.00692085 0.01969197 0.01584730
f 261 262 263
f 264 261 265
f 266 261 263
f 266 265 261
f 267 266 263
f 267 265 266
f 267 268 265
f 267 263 262
f 269 264 268
f 269 262 261
f 269 261 264
f 269 267 262
f 269 268 267
f 270 268 264
f 270 264 265
f 270 265 268

o geometry_16
v 0.00810795 -0.01637713 0.06093368
v 0.00510219 -0.01637713 0.06694520
v 0.00810795 -0.01938289 0.06093368
v 0.00810795 -0.00435409 0.04590489
v 0.00563733 -0.01868342 0.04322387
v -0.00992660 -0.01938289 0.04289913
v -0.00307570 -0.00342675 0.04149783
v -0.00992660 -0.01036561 0.04289913
v -0.00391509 -0.00134834 0.04590489
v 0.00510219 -0.01337137 0.06393944
v 0.00510219 -0.00134834 0.04590489
v 0.00343749 -0.02085677 0.06593712
v -0.00301393 -0.02030420 0.06631643
v 0.00810795 -0.00435409 0.04289913
v 0.00510219 -0.00134834 0.04289913
v -0.00512610 -0.00584317 0.04186586
v 0.00810795 -0.01337137 0.05792792
v -0.00489301 -0.02038310 0.06322476
v -0.00692085 -0.01637713 0.06393944
v -0.00692085 -0.00435409 0.04891065
v -0.00391509 -0.01637713 0.06694520
v -0.00992660 -0.01938289 0.04891065
v -0.00992660 -0.01036561 0.04590489
v -0.00692085 -0.01036561 0.05792792
v -0.00391509 -0.01337137 0.06393944
v -0.00992660 -0.01337137 0.04891065
f 271 272 273
f 271 273 274
f 275 276 277
f 278 279 277
f 280 272 271
f 280 274 281
f 280 281 279
f 282 273 272
f 282 272 283
f 282 275 273
f 282 276 275
f 284 274 273
f 284 273 275
f 284 275 277
f 284 281 274
f 285 277 279
f 285 279 281
f 285 284 277
f 285 281 284
f 286 278 277
f 286 277 276
f 286 276 278
f 287 280 271
f 287 271 274
f 287 274 280
f 288 282 283
f 288 276 282
f 288 283 289
f 290 279 278
f 291 289 283
f 291 283 272
f 291 272 280
f 292 278 276
f 292 288 289
f 292 276 288
f 293 290 278
f 293 278 292
f 294 290 293
f 295 291 280
f 295 280 279
f 295 279 290
f 295 290 294
f 295 294 289
f 295 289 291
f 296 293 292
f 296 292 289
f 296 294 293
f 296 289 294

o geometry_17
v 0.01704031 0.01969724 0.05492346
v 0.01487238 0.01560702 0.05494779
v 0.01712522 0.01368046 0.00081851
v 0.00209643 0.01969197 0.05492216
v 0.01621377 0.01974850 0.00083249
v 0.00209643 0.01969197 0.00081851
v 0.00194589 0.00694728 0.05492187
v 0.00810795 0.00466318 0.02787033
v 0.00958761 0.01022008 0.05492642
v 0.00194635 0.00694041 0.00081822
v 0.00442136 0.00757426 0.05491873
v 0.00658149 0.00528559 0.00113799
f 297 298 299
f 300 298 297
f 301 297 299
f 301 299 302
f 301 300 297
f 301 302 300
f 303 298 300
f 303 300 302
f 304 299 298
f 305 304 298
f 305 298 303
f 306 304 303
f 306 303 302
f 306 302 299
f 307 305 303
f 307 303 304
f 307 304 305
f 308 306 299
f 308 299 304
f 308 304 306

o geometry_18
v -0.01119639 0.04169440 -0.03525326
v -0.00992660 0.01969197 -0.03525060
v -0.00992660 0.02870925 -0.06831394
v -0.01115226 0.04166097 -0.06831652
v -0.01593812 0.04073228 -0.06831394
v -0.01894388 0.03472077 -0.03525060
v -0.01894388 0.02269773 -0.03525060
v -0.01475198 0.02020750 -0.03522104
v -0.01894388 0.02870925 -0.06530818
v -0.01319376 0.03960459 -0.03523269
v -0.01570553 0.02874490 -0.06830950
v -0.01418538 0.02045376 -0.06225876
v -0.01894388 0.03171501 -0.06530818
v -0.01894388 0.02269773 -0.05027939
v -0.00992660 0.01969197 -0.06230243
v -0.01894388 0.03472077 -0.04126212
f 309 310 311
f 312 309 311
f 312 311 313
f 312 313 309
f 314 309 313
f 314 315 316
f 317 315 314
f 318 316 310
f 318 310 309
f 318 314 316
f 318 309 314
f 319 317 313
f 319 313 311
f 320 317 319
f 321 317 314
f 321 313 317
f 322 320 316
f 322 316 315
f 322 315 317
f 322 317 320
f 323 310 316
f 323 316 320
f 323 311 310
f 323 320 319
f 323 319 311
f 324 321 314
f 324 314 313
f 324 313 321

o geometry_19
v 0.01566274 0.01978267 -0.03522816
v 0.01491563 0.01716950 -0.01418495
v 0.01712522 0.01368046 -0.01421029
v 0.01712522 0.01969197 -0.13744639
v 0.01399743 0.01969954 -0.14345604
v 0.01111370 0.01969197 -0.03525060
v 0.01411946 0.01067470 -0.14345791
v 0.00837217 0.01746828 -0.01384665
v 0.01061358 0.01116512 -0.14345660
v 0.01712522 0.01368046 -0.07733122
v 0.01086094 0.01109724 -0.01420958
v 0.01385353 0.01909272 -0.14348933
v 0.01712522 0.01668622 -0.13744639
f 325 326 327
f 325 327 328
f 325 328 329
f 325 329 330
f 331 329 328
f 332 330 329
f 332 329 333
f 332 327 326
f 332 325 330
f 332 326 325
f 334 328 327
f 334 327 331
f 335 331 327
f 335 333 331
f 335 332 333
f 335 327 332
f 336 331 333
f 336 333 329
f 336 329 331
f 337 334 331
f 337 331 328
f 337 328 334

o geometry_20
v 0.02013098 0.03772653 0.15411220
v 0.01995494 0.02856491 0.15289942
v 0.02013098 0.03171501 0.02787033
v 0.01723176 0.02801074 0.02793159
v 0.01712522 0.03772653 0.02486457
v 0.01406562 0.03753712 0.15217749
v 0.01350429 0.03734071 0.02487899
v 0.01409164 0.02859735 0.15304950
v 0.02013098 0.03772653 0.10902582
v 0.01705134 0.02870090 0.02486624
v 0.02013098 0.03472077 0.05792792
v 0.01701198 0.02903601 0.02479933
f 338 339 340
f 341 340 339
f 342 343 338
f 342 344 343
f 345 339 338
f 345 338 343
f 345 341 339
f 345 343 344
f 345 344 341
f 346 342 338
f 346 338 340
f 347 341 344
f 347 340 341
f 348 346 340
f 348 340 342
f 348 342 346
f 349 347 344
f 349 344 342
f 349 342 340
f 349 340 347

o geometry_21
v 0.01322269 0.01403453 -0.01420389
v 0.00810795 0.00466318 -0.01421029
v -0.00493094 0.01272585 -0.01478384
v -0.00391509 0.01368046 0.00081851
v 0.01331540 0.01399793 0.00082424
v -0.00278019 0.00076280 0.00209976
v 0.00810795 0.00165742 0.00081851
v 0.00810795 0.00165742 -0.00218725
v -0.00391509 -0.00134834 -0.00218725
v -0.00309897 0.00732848 -0.01419172
v 0.00510219 -0.00134834 -0.00218725
v 0.00510219 -0.00134834 0.00081851
f 350 351 352
f 350 353 354
f 350 352 353
f 355 354 353
f 355 356 354
f 357 350 354
f 357 354 356
f 357 351 350
f 358 355 353
f 358 353 352
f 359 358 352
f 359 352 351
f 359 351 358
f 360 358 351
f 360 351 357
f 360 357 356
f 361 360 356
f 361 356 355
f 361 355 358
f 361 358 360

o geometry_22
v -0.00644794 0.04454247 0.00081960
v -0.00692085 0.03772653 0.00081851
v -0.00644427 0.04452536 -0.03524950
v -0.00992660 0.04674380 -0.03525060
v -0.01339507 0.03968731 0.00083510
v -0.00992660 0.03472077 0.00081851
v -0.01586684 0.03468146 0.00081962
v -0.00992660 0.03472077 -0.03525060
v -0.00992660 0.04674380 0.00081851
v -0.00692085 0.03772653 -0.03525060
v -0.01543488 0.03444326 -0.03524274
v -0.01319376 0.03960459 -0.03523269
f 362 363 364
f 362 364 365
f 366 363 362
f 367 366 368
f 367 363 366
f 367 369 363
f 370 366 362
f 370 362 365
f 370 365 368
f 370 368 366
f 371 364 363
f 371 363 369
f 371 369 365
f 371 365 364
f 372 365 369
f 372 367 368
f 372 369 367
f 373 372 368
f 373 368 365
f 373 365 372

o geometry_23
v 0.01712522 0.02570349 -0.14345791
v 0.00209643 0.02870925 -0.14345791
v 0.01347977 0.02855513 -0.14344439
v 0.01712522 0.02870925 -0.13444063
v 0.01712522 0.01969197 -0.14345791
v 0.01712522 0.02870925 -0.13744639
v 0.00209643 0.02870925 -0.13444063
v 0.00209643 0.01368046 -0.13444063
v 0.00209643 0.01368046 -0.14345791
v 0.01188661 0.01320717 -0.13444257
v 0.01414741 0.01987665 -0.13439496
v 0.01187017 0.01321724 -0.14345980
f 374 375 376
f 374 377 378
f 379 376 375
f 379 375 377
f 379 374 376
f 379 377 374
f 380 377 375
f 380 375 381
f 382 381 375
f 382 383 381
f 384 383 378
f 384 378 377
f 384 381 383
f 384 380 381
f 384 377 380
f 385 378 383
f 385 383 382
f 385 382 375
f 385 374 378
f 385 375 374

o geometry_24
v -0.00692085 0.04073228 -0.06831394
v -0.00391509 0.04073228 -0.14345791
v -0.01593812 0.04073228 -0.14345791
v -0.00391509 0.02870925 -0.14345791
v -0.00391509 0.02870925 -0.07733122
v -0.00391509 0.04073228 -0.07733122
v -0.00692085 0.02870925 -0.06831394
v -0.01570553 0.02874490 -0.06830950
v -0.01593812 0.04073228 -0.06831394
v -0.01430323 0.02895983 -0.14342667
f 386 387 388
f 389 387 390
f 389 388 387
f 391 386 390
f 391 390 387
f 391 387 386
f 392 390 386
f 392 386 393
f 392 389 390
f 392 393 389
f 394 393 386
f 394 386 388
f 394 388 393
f 395 389 393
f 395 393 388
f 395 388 389

o geometry_25
v -0.00692085 0.03772653 0.00081851
v -0.00692085 0.02570349 0.00081851
v -0.00692085 0.04073228 -0.06831394
v -0.00992660 0.03772653 0.00081851
v -0.01119639 0.04169440 -0.03525326
v -0.01115226 0.04166097 -0.06831652
v -0.00992660 0.01969197 -0.06230243
v -0.00692085 0.01969197 -0.06230243
v -0.00992660 0.02870925 -0.06831394
v -0.00992660 0.02570349 0.00081851
v -0.00692085 0.04073228 -0.03525060
v -0.00841544 0.01924787 -0.01444904
v -0.00692085 0.02870925 -0.06831394
f 396 397 398
f 399 397 396
f 400 398 401
f 400 399 396
f 400 401 402
f 403 398 397
f 404 402 401
f 404 403 402
f 405 397 399
f 405 400 402
f 405 399 400
f 406 400 396
f 406 396 398
f 406 398 400
f 407 403 397
f 407 402 403
f 407 405 402
f 407 397 405
f 408 398 403
f 408 403 404
f 408 404 401
f 408 401 398

o geometry_26
v 0.00810795 -0.01637713 0.03087609
v 0.00642449 -0.01301714 0.03703284
v 0.00810795 -0.01938289 0.03688761
v 0.00510219 -0.02238865 0.03688761
v -0.00692085 -0.02238865 0.03688761
v 0.00510219 -0.01938289 0.02787033
v -0.00692085 -0.01637713 0.02486457
v 0.00510219 -0.01637713 0.02486457
v 0.00362827 -0.01230103 0.02546795
v -0.00491976 -0.01166976 0.02588165
v -0.00688170 -0.01336167 0.03689260
v -0.00692085 -0.02238865 0.03388185
v 0.00810795 -0.01938289 0.03388185
v 0.00567756 -0.01241816 0.03136175
v -0.00391509 -0.01938289 0.02787033
v 0.00510219 -0.02238865 0.03388185
f 409 410 411
f 412 411 410
f 412 410 413
f 414 415 416
f 414 416 409
f 417 416 415
f 417 415 418
f 417 409 416
f 419 413 410
f 419 410 418
f 419 418 415
f 419 415 413
f 420 413 415
f 420 412 413
f 421 411 412
f 421 414 409
f 421 409 411
f 422 417 418
f 422 418 410
f 422 410 409
f 422 409 417
f 423 420 415
f 423 415 414
f 423 414 420
f 424 420 414
f 424 412 420
f 424 421 412
f 424 414 421

o geometry_27
v 0.02313674 0.02870925 0.15411220
v -0.00692085 0.02870925 0.14208916
v -0.00678332 0.02860820 0.15285052
v 0.01411946 0.02269773 0.15711796
v 0.02313674 0.02570349 0.15411220
v 0.01872269 0.02013846 0.15390582
v 0.01970048 0.02866062 0.14209887
v -0.00692085 0.01969197 0.14208916
v 0.01853793 0.02023164 0.14211840
v -0.00391509 0.02269773 0.15711796
v 0.02313674 0.02570349 0.15110644
v -0.00686742 0.01964214 0.15366225
v 0.01403760 0.01931103 0.15413762
v 0.02313674 0.02870925 0.15110644
v -0.00391509 0.01969197 0.15711796
f 425 426 427
f 425 428 429
f 430 429 428
f 431 432 426
f 431 433 432
f 434 425 427
f 434 428 425
f 435 430 433
f 435 429 430
f 435 433 431
f 435 425 429
f 436 427 426
f 436 426 432
f 436 434 427
f 437 432 433
f 437 433 430
f 437 436 432
f 437 430 428
f 438 431 426
f 438 426 425
f 438 435 431
f 438 425 435
f 439 437 428
f 439 428 434
f 439 434 436
f 439 436 437

o geometry_28
v -0.02194964 0.01969197 0.15411220
v -0.00686742 0.01964214 0.15366225
v -0.01894388 0.04073228 0.15411220
v -0.00692085 0.01969197 0.09399702
v -0.02194964 0.03171501 0.09399702
v -0.00692085 0.04073228 0.09399702
v -0.01894388 0.04073228 0.11503734
v -0.00674260 0.04046710 0.15167810
v -0.02194964 0.03472077 0.15411220
v -0.02194964 0.01969197 0.10000854
v -0.01430734 0.03931404 0.09401591
v -0.02194964 0.03472077 0.12706037
v -0.02194964 0.02269773 0.09399702
v -0.01802118 0.01996305 0.09402155
v -0.01293236 0.01969197 0.09399702
f 440 441 442
f 443 444 445
f 446 442 445
f 447 442 441
f 447 445 442
f 447 443 445
f 447 441 443
f 448 440 442
f 448 444 440
f 448 442 446
f 449 440 444
f 449 441 440
f 450 446 445
f 450 445 444
f 450 444 446
f 451 448 446
f 451 446 444
f 451 444 448
f 452 449 444
f 452 444 443
f 453 449 452
f 454 453 452
f 454 452 443
f 454 449 453
f 454 443 441
f 454 441 449

o geometry_29
v -0.00692085 0.01969197 0.10301430
v -0.00691718 0.00768090 0.10301438
v -0.00658106 0.00830000 0.02487296
v -0.00692085 0.01969197 0.02486457
v -0.01649000 0.02075849 0.02492571
v -0.01115557 0.00980009 0.10306109
v -0.01894388 0.01368046 0.10301430
v -0.01824171 0.01989826 0.10303297
v -0.01293236 0.00766894 0.02486457
v -0.01894388 0.01668622 0.02486457
v -0.01593812 0.01067470 0.02486457
v -0.01894388 0.01368046 0.06393944
f 455 456 457
f 458 455 457
f 458 459 455
f 460 461 456
f 460 456 455
f 462 455 459
f 462 460 455
f 462 461 460
f 463 457 456
f 463 456 461
f 463 458 457
f 464 462 459
f 464 461 462
f 464 459 458
f 464 458 463
f 465 464 463
f 465 463 461
f 466 465 461
f 466 461 464
f 466 464 465

o geometry_30
v -0.00692085 0.01969197 0.02486457
v -0.00627036 0.00432457 0.02462244
v -0.00542868 0.01244243 0.01498824
v -0.00692085 0.01969197 0.01584730
v -0.01630113 0.02084057 0.01591314
v -0.00992660 0.00466318 0.02486457
v -0.01649000 0.02075849 0.02492571
v -0.00791577 0.00468100 0.01579380
v -0.01293236 0.00766894 0.01584730
v -0.01894388 0.01668622 0.01584730
v -0.01894388 0.01668622 0.02486457
v -0.01593812 0.01067470 0.02486457
v -0.00791341 0.00465438 0.01587371
v -0.01593812 0.01067470 0.02185882
f 467 468 469
f 470 467 469
f 470 469 471
f 470 471 467
f 472 468 467
f 473 467 471
f 473 472 467
f 474 475 469
f 474 469 468
f 476 471 469
f 476 469 475
f 476 473 471
f 476 477 473
f 478 475 472
f 478 477 476
f 478 473 477
f 478 472 473
f 479 472 475
f 479 475 474
f 479 474 468
f 479 468 472
f 480 478 476
f 480 476 475
f 480 475 478

o geometry_31
v 0.01712522 0.03772653 0.00081851
v 0.01684756 0.02573472 0.00082430
v 0.01712522 0.03472077 -0.03525060
v 0.00209643 0.03772653 0.00081851
v 0.00209643 0.03772653 -0.03525060
v 0.00209643 0.02570349 -0.03525060
v 0.01712522 0.03772653 -0.02022180
v 0.01610519 0.02581823 -0.03522933
v 0.00163324 0.02466743 0.00012470
v 0.01249356 0.03670683 -0.03521249
f 481 482 483
f 484 482 481
f 484 481 485
f 486 485 483
f 487 481 483
f 487 485 481
f 488 486 483
f 488 483 482
f 489 484 485
f 489 485 486
f 489 482 484
f 489 488 482
f 489 486 488
f 490 487 483
f 490 483 485
f 490 485 487

o geometry_32
v 0.01712522 0.03772653 0.02486457
v 0.01705134 0.02870090 0.02486624
v 0.01712522 0.03772653 0.00081851
v 0.00209643 0.02870925 0.00081851
v 0.00209643 0.04073228 0.00081851
v 0.00209643 0.04073228 0.02486457
v 0.01411946 0.04073228 0.00081851
v 0.01221105 0.03887131 0.02490781
v 0.01651600 0.02864043 0.00083225
v 0.00209643 0.02870925 0.02486457
f 491 492 493
f 494 495 493
f 494 496 495
f 497 491 493
f 497 493 495
f 497 495 496
f 498 492 491
f 498 497 496
f 498 491 497
f 499 494 493
f 499 493 492
f 500 496 494
f 500 498 496
f 500 492 498
f 500 499 492
f 500 494 499

o geometry_33
v -0.01686773 0.02059431 0.04295085
v 0.02013098 0.01969197 0.04289913
v 0.01749221 0.02841116 0.04295865
v -0.01894388 0.01969197 0.00081851
v -0.01706570 0.02899712 0.00085439
v 0.01651600 0.02864043 0.00083225
v 0.02013098 0.02870925 0.00683002
v -0.01785099 0.02887676 0.04292001
v 0.01621377 0.01974850 0.00083249
v 0.02013098 0.01969197 0.01885306
v 0.02013098 0.02570349 0.00683002
v 0.02013098 0.02269773 0.00983578
f 501 502 503
f 504 505 506
f 504 502 501
f 507 506 505
f 507 503 502
f 508 501 503
f 508 504 501
f 508 505 504
f 508 507 505
f 508 503 507
f 509 504 506
f 510 502 504
f 510 504 509
f 510 507 502
f 511 509 506
f 511 506 507
f 511 507 510
f 512 511 510
f 512 510 509
f 512 509 511

o geometry_34
v 0.00192690 0.01500540 -0.02243174
v 0.00194655 0.00693736 -0.02322785
v 0.00209643 0.01368046 -0.03525060
v -0.00692085 0.01368046 -0.03525060
v 0.00187677 0.00692672 -0.03525258
v -0.00692085 0.00466318 -0.02322756
v -0.00761296 0.00965696 -0.02324590
v -0.00692085 0.01368046 -0.02322756
v -0.00692085 0.00466318 -0.02623332
v -0.00611485 0.00885414 -0.03522924
v -0.00305793 0.00746252 -0.03523109
f 513 514 515
f 513 515 516
f 517 515 514
f 517 516 515
f 518 514 513
f 518 513 519
f 520 519 513
f 520 513 516
f 520 516 519
f 521 518 519
f 521 519 516
f 521 517 514
f 521 514 518
f 522 521 516
f 522 516 517
f 523 522 517
f 523 517 521
f 523 521 522

o geometry_35
v -0.00692085 0.04073228 0.09399702
v -0.00692085 0.02870925 0.09399702
v -0.00692085 0.04073228 0.00081851
v -0.01339507 0.03968731 0.00083510
v -0.00692085 0.02870925 0.00081851
v -0.01884964 0.02869982 0.09399914
v -0.01623831 0.03709383 0.09402690
v -0.01706570 0.02899712 0.00085439
v -0.01430734 0.03931404 0.09401591
v -0.01894388 0.03772653 0.00382426
v -0.01654908 0.03344529 0.00085589
f 524 525 526
f 524 526 527
f 528 526 525
f 528 527 526
f 528 525 529
f 530 529 525
f 530 525 524
f 531 528 529
f 531 527 528
f 532 530 524
f 532 524 527
f 533 532 527
f 533 530 532
f 533 531 529
f 533 529 530
f 534 533 527
f 534 527 531
f 534 531 533

o geometry_36
v 0.01970048 0.02866062 0.14209887
v 0.01853793 0.02023164 0.14211840
v 0.02013098 0.01969197 0.04289913
v 0.00209643 0.02870925 0.14208916
v 0.00209643 0.02870925 0.04289913
v 0.00209643 0.01969197 0.04289913
v 0.01749221 0.02841116 0.04295865
v 0.00209643 0.01969197 0.14208916
f 535 536 537
f 538 536 535
f 538 535 539
f 540 539 537
f 540 538 539
f 541 535 537
f 541 537 539
f 541 539 535
f 542 540 537
f 542 537 536
f 542 536 538
f 542 538 540

o geometry_37
v 0.01633685 0.01840574 0.05488856
v 0.01261222 0.01217162 0.15507151
v 0.01111370 0.00766894 0.15711796
v 0.00155559 0.00702278 0.15559306
v 0.00211213 0.01941322 0.15440207
v 0.00209643 0.01969197 0.05492216
v 0.01403760 0.01931103 0.15413762
v 0.00510219 0.00466318 0.15711796
v 0.00442136 0.00757426 0.05491873
v 0.01246684 0.01265175 0.05493404
v 0.00194589 0.00694728 0.05492187
v 0.00958761 0.01022008 0.05492642
f 543 544 545
f 546 547 548
f 549 545 544
f 549 547 545
f 549 544 543
f 549 543 548
f 549 548 547
f 550 545 547
f 550 547 546
f 551 545 550
f 552 543 545
f 553 551 550
f 553 550 546
f 553 546 548
f 553 548 543
f 553 543 551
f 554 551 543
f 554 543 552
f 554 552 545
f 554 545 551

o geometry_38
v 0.01376361 0.04022984 0.15192227
v 0.01409164 0.02859735 0.15304950
v 0.01701198 0.02903601 0.02479933
v 0.00208050 0.02863344 0.15337902
v 0.01221105 0.03887131 0.02490781
v 0.00209643 0.04073228 0.02486457
v 0.00211129 0.04049149 0.15203574
v 0.00209643 0.02870925 0.02486457
f 555 556 557
f 558 556 555
f 559 555 557
f 559 557 560
f 559 560 555
f 561 558 555
f 561 555 560
f 561 560 558
f 562 557 556
f 562 556 558
f 562 558 560
f 562 560 557

o geometry_39
v 0.00154197 0.04470468 -0.03523873
v 0.00209643 0.01969197 -0.03525060
v 0.00209643 0.01969197 -0.06230243
v -0.00692085 0.01969197 -0.03525060
v 0.00150212 0.04455810 -0.06228971
v -0.00623551 0.04457122 -0.06230512
v -0.00644427 0.04452536 -0.03524950
v -0.00692085 0.01969197 -0.06230243
f 563 564 565
f 566 564 563
f 566 565 564
f 567 563 565
f 567 565 568
f 567 568 563
f 569 566 563
f 569 563 568
f 570 568 565
f 570 565 566
f 570 569 568
f 570 566 569

o geometry_40
v 0.01580574 0.02839135 -0.03522272
v 0.01566274 0.01978267 -0.03522816
v 0.01712522 0.02870925 -0.11640608
v 0.00209643 0.02870925 -0.03525060
v 0.00209643 0.02870925 -0.11640608
v 0.00209643 0.01969197 -0.11640608
v 0.01442292 0.01985956 -0.11636463
v 0.00209643 0.01969197 -0.03525060
f 571 572 573
f 574 571 573
f 574 573 575
f 576 575 573
f 576 574 575
f 577 576 573
f 577 573 572
f 577 572 576
f 578 576 572
f 578 574 576
f 578 572 571
f 578 571 574

o geometry_41
v 0.00211129 0.04049149 0.15203574
v 0.01106686 0.04050933 0.15195589
v 0.00810795 0.04674380 0.15411220
v 0.00810795 0.04674380 0.00081851
v 0.01111370 0.04373804 0.00081851
v 0.01044765 0.04258207 0.15175504
v 0.00190904 0.04539662 0.15146548
v 0.00172031 0.04484859 0.00082587
v 0.01046644 0.04010111 0.00083317
v 0.00209643 0.04073228 0.00081851
f 579 580 581
f 582 581 583
f 584 581 580
f 584 580 583
f 584 583 581
f 585 579 581
f 585 586 579
f 585 582 586
f 585 581 582
f 587 583 580
f 587 580 579
f 588 587 579
f 588 579 586
f 588 583 587
f 588 582 583
f 588 586 582

o geometry_42
v -0.00332987 0.00904845 -0.15110217
v -0.00391509 0.01969197 -0.10438305
v -0.00353380 0.00837707 -0.10437363
v -0.00692085 0.00766894 -0.15247519
v -0.01039319 0.01499859 -0.10431354
v -0.01282510 0.01973859 -0.10438037
v -0.01293236 0.01368046 -0.15548094
v -0.01187825 0.02041350 -0.15415732
v -0.00391509 0.01368046 -0.15548094
v -0.00992660 0.01067470 -0.15548094
v -0.00428923 0.02008503 -0.15303395
v -0.00692085 0.01067470 -0.15548094
v -0.00553564 0.00970586 -0.10434634
f 589 590 591
f 589 591 592
f 593 590 594
f 593 594 595
f 596 594 590
f 596 597 595
f 596 595 594
f 598 592 595
f 598 595 597
f 599 589 597
f 599 590 589
f 599 596 590
f 599 597 596
f 600 589 592
f 600 597 589
f 600 598 597
f 600 592 598
f 601 591 590
f 601 590 593
f 601 592 591
f 601 593 595
f 601 595 592

o geometry_43
v 0.00209643 0.01969197 -0.03525060
v 0.00187677 0.00692672 -0.03525258
v 0.00234158 0.00689029 -0.14345221
v -0.00391509 0.01969197 -0.03525060
v -0.00391509 0.01969197 -0.14345791
v -0.00391509 0.00466318 -0.14345791
v 0.00209643 0.01969197 -0.14345791
v -0.00305793 0.00746252 -0.03523109
f 602 603 604
f 605 602 606
f 607 604 603
f 607 605 606
f 608 602 604
f 608 606 602
f 608 607 606
f 608 604 607
f 609 603 602
f 609 602 605
f 609 607 603
f 609 605 607

o geometry_44
v -0.00692085 0.04674380 0.15411220
v 0.00179615 0.04523074 0.10302018
v -0.00645836 0.04459096 0.10301537
v -0.00678332 0.02860820 0.15285052
v 0.00208050 0.02863344 0.15337902
v 0.00209643 0.02870925 0.10301430
v 0.00190904 0.04539662 0.15146548
v -0.00692085 0.02870925 0.10301430
f 610 611 612
f 613 614 610
f 615 612 611
f 615 614 613
f 616 610 614
f 616 611 610
f 616 615 611
f 616 614 615
f 617 613 610
f 617 610 612
f 617 615 613
f 617 612 615

o geometry_45
v 0.00209643 0.02870925 0.14208916
v 0.00154868 0.00700523 0.14208640
v 0.00167315 0.00693543 0.10301066
v -0.00692085 0.02870925 0.14208916
v -0.00692085 0.02870925 0.10301430
v -0.00615197 0.00717419 0.14210666
v 0.00209643 0.02870925 0.10301430
v -0.00607575 0.00742312 0.10303353
f 618 619 620
f 621 618 622
f 623 620 619
f 623 621 622
f 623 619 618
f 623 618 621
f 624 618 620
f 624 620 622
f 624 622 618
f 625 623 622
f 625 622 620
f 625 620 623

o geometry_46
v 0.00147997 0.04447667 -0.07731802
v 0.00209643 0.02870925 -0.07733122
v 0.00207836 0.04370454 -0.14345752
v -0.00391509 0.02870925 -0.07733122
v 0.00115912 0.04417913 -0.14343911
v -0.00391129 0.04502688 -0.14345553
v -0.00390661 0.04511702 -0.07732908
v -0.00391509 0.02870925 -0.14345791
v 0.00209643 0.02870925 -0.14345791
f 626 627 628
f 629 627 626
f 630 626 628
f 630 628 631
f 630 631 626
f 632 629 626
f 632 626 631
f 632 631 629
f 633 627 629
f 633 629 631
f 633 631 628
f 634 633 628
f 634 628 627
f 634 627 633

o geometry_47
v 0.00209643 0.02870925 0.08197399
v 0.00209643 0.01969197 0.08197399
v 0.00209643 0.02870925 0.04289913
v -0.01785099 0.02887676 0.04292001
v -0.01858232 0.02867307 0.08198211
v 0.00209643 0.01969197 0.04289913
v -0.01772713 0.02004944 0.08200634
v -0.01686773 0.02059431 0.04295085
f 635 636 637
f 635 637 638
f 639 635 638
f 640 637 636
f 640 638 637
f 641 636 635
f 641 635 639
f 641 640 636
f 641 639 638
f 642 641 638
f 642 638 640
f 642 640 641

o geometry_48
v 0.01111370 0.04373804 0.00081851
v 0.01199965 0.03847635 0.00079750
v 0.01111370 0.04373804 -0.03525060
v 0.00510219 0.04674380 -0.03525060
v 0.00172031 0.04484859 0.00082587
v 0.00154197 0.04470468 -0.03523873
v 0.00209643 0.03772653 0.00081851
v 0.01150153 0.03805476 -0.03525979
v 0.00402784 0.04416117 0.00083955
v 0.00209643 0.03772653 -0.03525060
f 643 644 645
f 646 643 645
f 647 648 649
f 647 646 648
f 647 643 646
f 650 645 644
f 650 644 649
f 650 646 645
f 651 647 649
f 651 643 647
f 651 649 644
f 651 644 643
f 652 650 649
f 652 649 648
f 652 648 646
f 652 646 650

o geometry_49
v 0.01684756 0.02573472 0.00082430
v 0.01712522 0.01368046 0.00081851
v 0.01712522 0.01368046 -0.01421029
v -0.00992660 0.02570349 0.00081851
v 0.01653824 0.02576952 -0.01419805
v -0.00873985 0.02554349 -0.01435268
v -0.01111644 0.01272706 -0.01424274
v -0.00839311 0.01370038 0.00078195
f 653 654 655
f 656 654 653
f 657 653 655
f 657 655 658
f 657 656 653
f 657 658 656
f 659 655 654
f 659 656 658
f 659 658 655
f 660 659 654
f 660 654 656
f 660 656 659

o geometry_50
v 0.00837217 0.01746828 -0.01384665
v 0.01360434 0.01516452 -0.02325029
v -0.00554217 0.01798178 -0.02244916
v -0.00748289 0.01642814 -0.01435826
v 0.00892746 0.00967529 -0.01421508
v 0.00810795 0.00466318 -0.01421029
v -0.00692085 0.00466318 -0.01421029
v -0.00692085 0.00466318 -0.02322756
v 0.00810795 0.00466318 -0.02322756
f 661 662 663
f 661 663 664
f 665 666 662
f 665 662 661
f 665 661 666
f 667 666 661
f 667 661 664
f 668 667 664
f 668 664 663
f 668 663 662
f 668 666 667
f 669 668 662
f 669 662 666
f 669 666 668

o geometry_51
v -0.00692085 0.02870925 0.09399702
v -0.00692085 0.01969197 0.09399702
v -0.00692085 0.01969197 0.08197399
v -0.00692085 0.02870925 0.08197399
v -0.02194964 0.02870925 0.08197399
v -0.01802118 0.01996305 0.09402155
v -0.02194964 0.02870925 0.09399702
v -0.02194964 0.02269773 0.09399702
v -0.02194964 0.02269773 0.08197399
v -0.01772713 0.02004944 0.08200634
f 670 671 672
f 673 670 672
f 673 672 674
f 673 674 670
f 675 671 670
f 675 672 671
f 676 670 674
f 676 674 677
f 676 675 670
f 676 677 675
f 678 675 677
f 678 677 674
f 678 674 672
f 679 678 672
f 679 672 675
f 679 675 678

o geometry_52
v 0.01411946 0.04373804 0.15411220
v 0.01376361 0.04022984 0.15192227
v 0.01411946 0.04373804 0.05792792
v 0.01044765 0.04258207 0.15175504
v 0.00974651 0.04171160 0.05795695
v 0.01259487 0.03924559 0.05796246
v 0.01106686 0.04050933 0.15195589
v 0.01109935 0.04071497 0.05792825
f 680 681 682
f 683 680 682
f 683 682 684
f 685 682 681
f 686 681 680
f 686 680 683
f 686 685 681
f 686 683 684
f 686 684 685
f 687 685 684
f 687 684 682
f 687 682 685

o geometry_53
v 0.01411946 0.04073228 0.00081851
v 0.01310000 0.03708716 0.00084240
v 0.01411946 0.04073228 -0.06530818
v 0.01046644 0.04010111 0.00083317
v 0.00964333 0.03940947 -0.06527396
v 0.01198820 0.03638988 -0.06525824
v 0.01108643 0.03770344 -0.06530754
f 688 689 690
f 691 689 688
f 691 688 690
f 691 690 692
f 693 690 689
f 693 691 692
f 693 689 691
f 694 693 692
f 694 692 690
f 694 690 693

o geometry_54
v 0.01712522 0.04073228 0.15411220
v 0.01656256 0.03721971 0.15213788
v 0.01712522 0.04073228 0.06093368
v 0.01376361 0.04022984 0.15192227
v 0.01262977 0.03927962 0.06096743
v 0.01496009 0.03636864 0.06098442
v 0.01406562 0.03753712 0.15217749
v 0.01408490 0.03769727 0.06093450
f 695 696 697
f 698 695 697
f 698 697 699
f 700 697 696
f 701 696 695
f 701 695 698
f 701 700 696
f 701 698 699
f 701 699 700
f 702 700 699
f 702 699 697
f 702 697 700

o geometry_55
v 0.00178053 0.04515206 0.08198018
v 0.00209643 0.02870925 0.08197399
v 0.00209643 0.02870925 0.00081851
v -0.00692085 0.02870925 0.08197399
v 0.00172031 0.04484859 0.00082587
v -0.00644794 0.04454247 0.00081960
v -0.00645622 0.04458097 0.08197506
v -0.00692085 0.02870925 0.00081851
f 703 704 705
f 706 704 703
f 706 705 704
f 707 703 705
f 707 705 708
f 707 708 703
f 709 706 703
f 709 703 708
f 710 708 705
f 710 705 706
f 710 709 708
f 710 706 709

o geometry_56
v 0.00209643 0.02870925 -0.06230243
v 0.00209643 0.01969197 -0.06230243
v 0.00209643 0.02870925 -0.11640608
v -0.01480806 0.02888246 -0.11638449
v -0.01581772 0.02872770 -0.06230012
v -0.01593812 0.01969197 -0.11640608
v -0.01418538 0.02045376 -0.06225876
v 0.00209643 0.01969197 -0.11640608
f 711 712 713
f 711 713 714
f 715 711 714
f 716 714 713
f 716 715 714
f 717 712 711
f 717 711 715
f 717 716 712
f 717 715 716
f 718 716 713
f 718 713 712
f 718 712 716

o geometry_57
v 0.00179615 0.04523074 0.10302018
v 0.00167315 0.00693543 0.10301066
v 0.00193076 0.00694972 0.08197351
v 0.00178053 0.04515206 0.08198018
v -0.00645622 0.04458097 0.08197506
v -0.00607575 0.00742312 0.10303353
v -0.00645836 0.04459096 0.10301537
v -0.00692085 0.02870925 0.10301430
v -0.00692085 0.00466318 0.08197399
f 719 720 721
f 722 719 721
f 722 721 723
f 722 723 719
f 724 720 719
f 725 719 723
f 725 723 726
f 725 724 719
f 725 726 724
f 727 721 720
f 727 720 724
f 727 723 721
f 727 724 726
f 727 726 723

o geometry_58
v 0.00172031 0.04484859 0.00082587
v 0.00163324 0.02466743 0.00012470
v 0.00209643 0.02570349 -0.03525060
v -0.00692085 0.02570349 0.00081851
v 0.00154197 0.04470468 -0.03523873
v -0.00644427 0.04452536 -0.03524950
v -0.00644794 0.04454247 0.00081960
v -0.00692085 0.02570349 -0.03525060
f 728 729 730
f 731 729 728
f 732 728 730
f 732 730 733
f 732 733 728
f 734 731 728
f 734 728 733
f 735 730 729
f 735 729 731
f 735 733 730
f 735 734 733
f 735 731 734

o geometry_59
v 0.01712522 0.02870925 -0.11640608
v 0.01442292 0.01985956 -0.11636463
v 0.01712522 0.02870925 -0.13444063
v -0.01447150 0.02893404 -0.13441261
v -0.01480806 0.02888246 -0.11638449
v -0.01593812 0.01969197 -0.13444063
v 0.01414741 0.01987665 -0.13439496
v -0.01593812 0.01969197 -0.11640608
v 0.00209643 0.01969197 -0.13444063
f 736 737 738
f 736 738 739
f 740 737 736
f 740 736 739
f 741 739 738
f 741 740 739
f 742 738 737
f 743 737 740
f 743 740 741
f 744 741 738
f 744 738 742
f 744 742 737
f 744 743 741
f 744 737 743

o geometry_60
v -0.00692085 0.01969197 0.15711796
v 0.00209643 0.01969197 0.14208916
v -0.00692085 0.01969197 0.14208916
v -0.00692085 0.00466318 0.15711796
v 0.00155559 0.00702278 0.15559306
v 0.00211213 0.01941322 0.15440207
v 0.00154868 0.00700523 0.14208640
v -0.00615197 0.00717419 0.14210666
f 745 746 747
f 748 749 745
f 748 745 747
f 750 745 749
f 750 746 745
f 751 749 748
f 751 750 749
f 751 746 750
f 751 747 746
f 752 751 748
f 752 748 747
f 752 747 751

o geometry_61
v 0.00150212 0.04455810 -0.06228971
v 0.00209643 0.02870925 -0.06230243
v 0.00209643 0.02870925 -0.07733122
v -0.00692085 0.02870925 -0.06230243
v 0.00147997 0.04447667 -0.07731802
v -0.00624086 0.04458818 -0.07733389
v -0.00705874 0.04437992 -0.06230274
v -0.00692085 0.02870925 -0.07733122
v -0.00623551 0.04457122 -0.06230512
f 753 754 755
f 756 754 753
f 756 755 754
f 757 753 755
f 757 755 758
f 757 758 753
f 759 756 753
f 760 758 755
f 760 755 756
f 760 759 758
f 760 756 759
f 761 759 753
f 761 753 758
f 761 758 759

o geometry_62
v -0.00377656 0.01349183 0.01571876
v -0.00320722 0.00715219 0.01586354
v -0.00309897 0.00732848 -0.01419172
v -0.01278735 0.01379354 0.01585128
v -0.01227424 0.01419365 -0.01419221
v -0.00493094 0.01272585 -0.01478384
v -0.01138423 0.01203555 0.01588959
v -0.00692085 0.00466318 -0.01421029
v -0.00391509 0.00165742 -0.00519301
v -0.00992660 0.00466318 -0.00218725
v -0.00365075 0.00202664 0.00104212
v -0.00791577 0.00468100 0.01579380
v -0.00692085 0.00165742 -0.00519301
f 762 763 764
f 765 762 766
f 767 762 764
f 767 766 762
f 768 763 762
f 768 762 765
f 769 767 764
f 769 766 767
f 770 769 764
f 771 765 766
f 771 766 769
f 772 770 764
f 772 764 763
f 773 768 765
f 773 765 771
f 773 772 763
f 773 763 768
f 774 771 769
f 774 769 770
f 774 773 771
f 774 770 772
f 774 772 773

o geometry_63
v -0.00391509 0.01969197 0.01584730
v -0.00377656 0.01349183 0.01571876
v -0.00391509 0.01668622 0.00081851
v -0.00572539 0.02119396 0.00186073
v -0.01550171 0.01982018 0.00083011
v -0.01586927 0.01971220 0.01584913
v -0.01362367 0.01488193 0.01591066
v -0.00391509 0.01368046 0.00081851
v -0.01329979 0.01505006 0.00089073
v -0.01491720 0.01728857 0.01587449
f 775 776 777
f 778 775 777
f 778 777 779
f 778 780 775
f 778 779 780
f 781 776 775
f 781 775 780
f 782 777 776
f 782 781 783
f 782 776 781
f 782 783 779
f 782 779 777
f 784 780 779
f 784 779 783
f 784 781 780
f 784 783 781