# https://github.com/mikedh/trimesh
v 0.59253726 0.05194549 0.11843763
v 0.59564595 0.05781420 0.00387324
v 0.58925001 0.04464394 0.30852540
v 0.56684869 0.02254473 -0.00062299
v 0.55968991 0.01105379 0.30529920
v 0.60262105 0.06439818 0.11147900
v 0.58269762 0.03995819 0.12510256
v 0.62678721 0.09707700 0.00648393
v 0.62117418 0.08224879 0.30984882
v 0.58610360 0.05546798 0.11743742
v 0.58429153 0.05301647 0.11878766
v 0.58815972 0.05778703 0.11613951
v 0.60843978 0.09056408 0.00424333
v 0.60198095 0.07585290 0.30800689
v 0.56642696 0.03786774 -0.00091821
v 0.55887548 0.02550089 0.30466707
v 0.60376670 0.06355768 0.11165113
v 0.58420745 0.03958992 0.12502171
v 0.57807388 0.05854676 -0.00002143
v 0.57067372 0.04517865 0.30491747
v 0.58962565 0.07308499 0.00141717
v 0.58252692 0.05907174 0.30585202
v 0.58279300 0.05052754 0.12013669
v 0.59038283 0.05988501 0.11494099
v 0.59775260 0.03920280 0.00061457
v 0.59185401 0.02715590 0.30570511
v 0.62095184 0.06772925 0.00323785
v 0.61564502 0.05439431 0.30735926
v 0.56468176 0.03232190 -0.00093458
v 0.55716830 0.02024599 0.30480244
v 0.61417685 0.09428773 0.00510045
v 0.60794831 0.07945127 0.30869873
v 0.60461577 0.05868302 0.11344108
v 0.59047911 0.04140834 0.12309636
v 0.58166724 0.04809890 0.12142677
v 0.59269099 0.06168319 0.11388102
v 0.58817693 0.04033184 0.12399111
v 0.60478764 0.06064651 0.11264296
v 0.58359918 0.06592600 0.00062020
v 0.57633249 0.05222458 0.30530796
v 0.61927371 0.09667074 0.00579464
v 0.61326872 0.08177191 0.30926859
v 0.56415946 0.02781610 -0.00086763
v 0.55672664 0.01598956 0.30497846
v 0.62353326 0.09761422 0.00626829
v 0.61773618 0.08271815 0.30966352
v 0.56488808 0.02451634 -0.00075421
v 0.55757509 0.01288748 0.30515431
v 0.56932252 0.04424900 -0.00078012
v 0.56177744 0.03156130 0.30461652
v 0.60228064 0.08565144 0.00329408
v 0.59559402 0.07112395 0.30725754
v 0.58605815 0.03971681 0.12464439
v 0.60449944 0.06229151 0.11204186
v 0.58091495 0.04210700 0.12437143
v 0.59928731 0.06469140 0.11180195
v 0.59126357 0.03342403 0.00025115
v 0.58515430 0.02162180 0.30556490
v 0.62490563 0.07483743 0.00407355
v 0.61965546 0.06116683 0.30797898
v 0.62890325 0.09507790 0.00642859
v 0.62344326 0.08038031 0.30981242
v 0.56997477 0.02197548 -0.00048961
v 0.56299861 0.01055694 0.30539723
v 0.62979121 0.09169530 0.00611501
v 0.62444743 0.07718649 0.30956605
v 0.57415349 0.02283227 -0.00035454
v 0.56738139 0.01141761 0.30544961
v 0.61039873 0.05291348 0.00170904
v 0.60485924 0.04025981 0.30631206
v 0.58070517 0.04380257 0.12359719
v 0.59722582 0.06412991 0.11229221
v 0.59287185 0.04290139 0.12200577
v 0.60398566 0.05647301 0.11441684
v 0.59499999 0.06311535 0.11299048
v 0.58096081 0.04582697 0.12259904
v 0.57922883 0.02508710 -0.00020369
v 0.57267463 0.01360758 0.30547382
v 0.62940787 0.08706388 0.00557953
v 0.62413923 0.07279524 0.30914317
v 0.57325478 0.05122898 -0.00048776
v 0.56576070 0.03820314 0.30469057
v 0.59593056 0.07974705 0.00232823
v 0.58902776 0.06545504 0.30651842
v 0.59525846 0.04475017 0.12077266
v 0.60291721 0.05409795 0.11554390
v 0.60421684 0.04578200 0.00109864
v 0.59851056 0.03344743 0.30594928
v 0.61605191 0.06032478 0.00243294
v 0.61064732 0.04733322 0.30678983
v 0.60110850 0.06478128 0.11152935
v 0.58158654 0.04080828 0.12488204
v 0.62776009 0.08136880 0.00487704
v 0.62252292 0.06738305 0.30859413
v 0.58500697 0.02866061 -0.00001197
v 0.57867646 0.01705010 0.30549995
v 0.59754272 0.04688072 0.11945426
v 0.60144821 0.05164603 0.11678823
v 0.59963340 0.04920934 0.11810798
v 0.61696361 0.09292570 0.14168138
v 0.61690632 0.09309148 0.13947883
v 0.61722576 0.09261172 0.14435563
v 0.61697800 0.09288457 0.14222901
v 0.61771922 0.09217599 0.14689148
v 0.61729233 0.09253919 0.14492273
v 0.61843184 0.09164088 0.14918524
v 0.61784154 0.09207346 0.14745006
v 0.61934457 0.09103383 0.15113912
v 0.61861067 0.09151234 0.14970401
v 0.62043095 0.09038537 0.15266639
v 0.61957722 0.09088567 0.15158617
v 0.62165686 0.08972683 0.15369641
v 0.62071095 0.09022571 0.15301237
v 0.62298070 0.08908823 0.15417921
v 0.62197399 0.08956463 0.15391767
v 0.62435410 0.08849632 0.15408901
v 0.62332141 0.08893228 0.15426052
v 0.62572329 0.08797318 0.15342646
v 0.62470238 0.08835436 0.15402534
v 0.62703132 0.08753537 0.15221904
v 0.62606202 0.08785116 0.15322353
v 0.62822081 0.08719384 0.15051987
v 0.62734377 0.08743717 0.15189260
v 0.62923726 0.08695435 0.14840462
v 0.62849219 0.08712117 0.15009382
v 0.63003246 0.08681838 0.14596689
v 0.62945610 0.08690701 0.14790807
v 0.63056782 0.08678435 0.14331280
v 0.63019155 0.08679479 0.14543110
v 0.63081718 0.08684877 0.14055479
v 0.63066461 0.08678203 0.14276798
v 0.63076865 0.08700715 0.13780568
v 0.63085355 0.08686478 0.14002752
v 0.63042554 0.08725453 0.13517330
v 0.63075014 0.08703855 0.13731719
v 0.62980589 0.08758546 0.13275600
v 0.63036019 0.08729853 0.13473869
v 0.62894107 0.08799357 0.13063941
v 0.62970299 0.08763964 0.13238448
v 0.62787332 0.08847073 0.12889429
v 0.62880994 0.08805586 0.13033515
v 0.62665270 0.08900622 0.12757567
v 0.62772240 0.08853942 0.12865795
v 0.62533374 0.08958586 0.12672240
v 0.62648903 0.08907986 0.12740586
v 0.62397219 0.09019165 0.12635758
v 0.62516287 0.08966319 0.12661730
v 0.62262219 0.09080181 0.12648902
v 0.62379846 0.09027140 0.12631608
v 0.62133392 0.09139152 0.12710980
v 0.62244921 0.09088248 0.12651141
v 0.62015203 0.09193406 0.12819874
v 0.62116518 0.09147105 0.12719798
v 0.61911471 0.09240256 0.12972077
v 0.61999142 0.09200968 0.12835579
v 0.61825330 0.09277195 0.13162719
v 0.61896693 0.09247059 0.12994999
v 0.61759239 0.09302096 0.13385617
v 0.61812402 0.09282785 0.13193077
v 0.61715013 0.09313394 0.13633343
v 0.61748821 0.09305959 0.13423360
v 0.61693850 0.09310236 0.13897347
v 0.61707827 0.09315010 0.13677999
v 0.54261461 0.03610791 0.14819494
v 0.53771290 0.03178878 0.14449049
v 0.54744195 0.04079781 0.15098070
v 0.54369625 0.02784592 0.15555743
v 0.55060579 0.03451197 0.15986401
v 0.55067881 0.03290443 0.16117971
v 0.54524588 0.02762608 0.15783513
v 0.53564657 0.03494676 0.13940975
v 0.54461378 0.04306093 0.14560579
v 0.54798443 0.02822725 0.16110235
v 0.54989398 0.03009798 0.16226035
v 0.53622382 0.04329141 0.13432730
v 0.54306182 0.04382397 0.14301406
v 0.53500020 0.03660642 0.13735652
v 0.55043876 0.03141191 0.16199259
v 0.54669436 0.02775521 0.15970880
v 0.53905577 0.03042144 0.14731817
v 0.54860938 0.03937052 0.15357550
v 0.53656208 0.03331877 0.14181867
v 0.54609267 0.04204153 0.14829233
v 0.53855369 0.04438765 0.13666093
v 0.53485181 0.04114913 0.13397739
v 0.55022381 0.03616852 0.15810615
v 0.54210664 0.02840459 0.15297091
v 0.54906512 0.02902027 0.16196243
v 0.53540138 0.04233733 0.13389006
v 0.53728791 0.04398175 0.13526438
v 0.54053945 0.02927631 0.15018514
v 0.54954917 0.03780867 0.15598142
v 0.53997391 0.04449726 0.13846311
v 0.53459652 0.03976530 0.13459622
v 0.53464616 0.03823287 0.13573377
v 0.54149558 0.04430752 0.14060569
v 0.61160450 0.06110872 0.14425841
v 0.61147344 0.06126425 0.14441009
v 0.61098940 0.06177381 0.14438478
v 0.61076450 0.06200837 0.14437072
v 0.61012783 0.06263517 0.14398108
v 0.60981153 0.06294455 0.14378673
v 0.60905505 0.06365931 0.14306742
v 0.60865617 0.06403456 0.14268807
v 0.60781443 0.06480824 0.14168116
v 0.60734791 0.06523595 0.14112317
v 0.60645552 0.06604070 0.13987522
v 0.60594153 0.06650379 0.13915625
v 0.60503185 0.06731340 0.13771602
v 0.60449416 0.06779221 0.13686402
v 0.60359865 0.06858213 0.13528130
v 0.60306269 0.06905572 0.13433278
v 0.60221058 0.06980273 0.13265780
v 0.60170130 0.07025041 0.13165509
v 0.60091959 0.07093223 0.12993882
v 0.60045950 0.07133486 0.12892707
v 0.59977315 0.07192971 0.12722185
v 0.59938066 0.07227104 0.12624572
v 0.59881266 0.07275755 0.12460584
v 0.59850098 0.07302527 0.12370634
v 0.59807232 0.07338264 0.12218833
v 0.59784900 0.07356904 0.12140019
v 0.59757828 0.07377779 0.12006234
v 0.59744524 0.07388015 0.11941185
v 0.59734810 0.07392326 0.11831280
v 0.59730221 0.07394365 0.11781669
v 0.59739029 0.07380823 0.11701295
v 0.59742434 0.07375298 0.11667812
v 0.59770416 0.07343205 0.11622053
v 0.59780801 0.07331082 0.11604480
v 0.59827959 0.07280512 0.11597432
v 0.59844149 0.07262968 0.11594801
v 0.59909717 0.07194922 0.11629125
v 0.59930488 0.07173216 0.11639937
v 0.60012832 0.07089699 0.11716445
v 0.60037019 0.07065061 0.11738912
v 0.60133604 0.06969072 0.11856268
v 0.60160160 0.06942619 0.11888538
v 0.60267575 0.06838044 0.12043116
v 0.60295608 0.06810735 0.12083442
v 0.60409681 0.06702128 0.12269392
v 0.60438436 0.06674770 0.12316222
v 0.60554438 0.06567062 0.12525743
v 0.60583247 0.06540359 0.12577709
v 0.60696162 0.06438502 0.12801540
v 0.60724370 0.06413120 0.12857372
v 0.60829213 0.06321738 0.13085405
v 0.60856096 0.06298378 0.13143790
v 0.60948248 0.06221440 0.13365772
v 0.60972939 0.06200893 0.13425189
v 0.61048461 0.06141454 0.13631431
v 0.61069913 0.06124623 0.13690018
v 0.61125795 0.06084670 0.13872002
v 0.61142795 0.06072549 0.13927496
v 0.61177132 0.06052934 0.14078365
v 0.61188363 0.06046539 0.14128120
v 0.61200421 0.06047038 0.14242968
v 0.61204574 0.06047310 0.14284077
v 0.61194763 0.06066746 0.14360064
v 0.61190697 0.06074437 0.14389572
f 39 2 19
f 39 19 40
f 40 19 20
f 40 20 3
f 19 2 81
f 19 81 20
f 20 81 82
f 20 82 3
f 81 2 49
f 81 49 82
f 82 49 50
f 82 50 3
f 49 2 15
f 49 15 50
f 50 15 16
f 50 16 3
f 15 2 29
f 15 29 16
f 16 29 30
f 16 30 3
f 29 2 43
f 29 43 30
f 30 43 44
f 30 44 3
f 43 2 47
f 43 47 44
f 44 47 48
f 44 48 3
f 47 2 4
f 47 4 48
f 48 4 5
f 48 5 3
f 4 2 63
f 4 63 5
f 5 63 64
f 5 64 3
f 63 2 67
f 63 67 64
f 64 67 68
f 64 68 3
f 67 2 77
f 67 77 68
f 68 77 78
f 68 78 3
f 77 2 95
f 77 95 78
f 78 95 96
f 78 96 3
f 95 2 57
f 95 57 96
f 96 57 58
f 96 58 3
f 57 2 25
f 57 25 58
f 58 25 26
f 58 26 3
f 25 2 87
f 25 87 26
f 26 87 88
f 26 88 3
f 87 2 69
f 87 69 88
f 88 69 70
f 88 70 3
f 69 2 89
f 69 89 70
f 70 89 90
f 70 90 3
f 89 2 27
f 89 27 90
f 90 27 28
f 90 28 3
f 27 2 59
f 27 59 28
f 28 59 60
f 28 60 3
f 59 2 93
f 59 93 60
f 60 93 94
f 60 94 3
f 93 2 79
f 93 79 94
f 94 79 80
f 94 80 3
f 79 2 65
f 79 65 80
f 80 65 66
f 80 66 3
f 65 2 61
f 65 61 66
f 66 61 62
f 66 62 3
f 61 2 8
f 61 8 62
f 62 8 9
f 62 9 3
f 8 2 45
f 8 45 9
f 9 45 46
f 9 46 3
f 45 2 41
f 45 41 46
f 46 41 42
f 46 42 3
f 41 2 31
f 41 31 42
f 42 31 32
f 42 32 3
f 31 2 13
f 31 13 32
f 32 13 14
f 32 14 3
f 13 2 51
f 13 51 14
f 14 51 52
f 14 52 3
f 51 2 83
f 51 83 52
f 52 83 84
f 52 84 3
f 83 2 21
f 83 21 84
f 84 21 22
f 84 22 3
f 21 2 39
f 21 39 22
f 22 39 40
f 22 40 3
f 10 1 11
f 11 1 23
f 23 1 35
f 35 1 76
f 76 1 71
f 71 1 55
f 55 1 92
f 92 1 7
f 7 1 18
f 18 1 53
f 53 1 37
f 37 1 34
f 34 1 73
f 73 1 85
f 85 1 97
f 97 1 99
f 99 1 98
f 98 1 86
f 86 1 74
f 74 1 33
f 33 1 38
f 38 1 54
f 54 1 17
f 17 1 6
f 6 1 91
f 91 1 56
f 56 1 72
f 72 1 75
f 75 1 36
f 36 1 24
f 24 1 12
f 12 1 10
f 10 11 100
f 11 23 102
f 23 35 104
f 35 76 106
f 76 71 108
f 71 55 110
f 55 92 112
f 92 7 114
f 7 18 116
f 18 53 118
f 53 37 120
f 37 34 122
f 34 73 124
f 73 85 126
f 85 97 128
f 97 99 130
f 99 98 132
f 98 86 134
f 86 74 136
f 74 33 138
f 33 38 140
f 38 54 142
f 54 17 144
f 17 6 146
f 6 91 148
f 91 56 150
f 56 72 152
f 72 75 154
f 75 36 156
f 36 24 158
f 24 12 160
f 12 10 162
f 100 101 10
f 102 103 11
f 104 105 23
f 106 107 35
f 108 109 76
f 110 111 71
f 112 113 55
f 114 115 92
f 116 117 7
f 118 119 18
f 120 121 53
f 122 123 37
f 124 125 34
f 126 127 73
f 128 129 85
f 130 131 97
f 132 133 99
f 134 135 98
f 136 137 86
f 138 139 74
f 140 141 33
f 142 143 38
f 144 145 54
f 146 147 17
f 148 149 6
f 150 151 91
f 152 153 56
f 154 155 72
f 156 157 75
f 158 159 36
f 160 161 24
f 162 163 12
f 11 103 100
f 23 105 102
f 35 107 104
f 76 109 106
f 71 111 108
f 55 113 110
f 92 115 112
f 7 117 114
f 18 119 116
f 53 121 118
f 37 123 120
f 34 125 122
f 73 127 124
f 85 129 126
f 97 131 128
f 99 133 130
f 98 135 132
f 86 137 134
f 74 139 136
f 33 141 138
f 38 143 140
f 54 145 142
f 17 147 144
f 6 149 146
f 91 151 148
f 56 153 150
f 72 155 152
f 75 157 154
f 36 159 156
f 24 161 158
f 12 163 160
f 10 101 162
f 188 174 164
f 174 178 164
f 178 169 164
f 169 168 164
f 168 186 164
f 186 192 164
f 192 181 164
f 181 166 164
f 166 183 164
f 183 172 164
f 172 176 164
f 176 196 164
f 196 193 164
f 193 184 164
f 184 190 164
f 190 175 164
f 175 189 164
f 189 185 164
f 185 194 164
f 194 195 164
f 195 177 164
f 177 171 164
f 171 182 164
f 182 165 164
f 165 180 164
f 180 191 164
f 191 187 164
f 187 167 164
f 167 170 164
f 170 179 164
f 179 173 164
f 173 188 164
f 174 188 197
f 178 174 199
f 169 178 201
f 168 169 203
f 186 168 205
f 192 186 207
f 181 192 209
f 166 181 211
f 183 166 213
f 172 183 215
f 176 172 217
f 196 176 219
f 193 196 221
f 184 193 223
f 190 184 225
f 175 190 227
f 189 175 229
f 185 189 231
f 194 185 233
f 195 194 235
f 177 195 237
f 171 177 239
f 182 171 241
f 165 182 243
f 180 165 245
f 191 180 247
f 187 191 249
f 167 187 251
f 170 167 253
f 179 170 255
f 173 179 257
f 188 173 259
f 197 198 174
f 199 200 178
f 201 202 169
f 203 204 168
f 205 206 186
f 207 208 192
f 209 210 181
f 211 212 166
f 213 214 183
f 215 216 172
f 217 218 176
f 219 220 196
f 221 222 193
f 223 224 184
f 225 226 190
f 227 228 175
f 229 230 189
f 231 232 185
f 233 234 194
f 235 236 195
f 237 238 177
f 239 240 171
f 241 242 182
f 243 244 165
f 245 246 180
f 247 248 191
f 249 250 187
f 251 252 167
f 253 254 170
f 255 256 179
f 257 258 173
f 259 260 188
f 188 260 197
f 174 198 199
f 178 200 201
f 169 202 203
f 168 204 205
f 186 206 207
f 192 208 209
f 181 210 211
f 166 212 213
f 183 214 215
f 172 216 217
f 176 218 219
f 196 220 221
f 193 222 223
f 184 224 225
f 190 226 227
f 175 228 229
f 189 230 231
f 185 232 233
f 194 234 235
f 195 236 237
f 177 238 239
f 171 240 241
f 182 242 243
f 165 244 245
f 180 246 247
f 191 248 249
f 187 250 251
f 167 252 253
f 170 254 255
f 179 256 257
f 173 258 259